<?xml version="1.0" encoding="UTF-8" standalone="no"?>
<svg xmlns:rdf="http://www.w3.org/1999/02/22-rdf-syntax-ns#" xmlns="http://www.w3.org/2000/svg" height="14.586mm" width="14.586mm" version="1.1" xmlns:cc="http://creativecommons.org/ns#" xmlns:dc="http://purl.org/dc/elements/1.1/" viewBox="0 0 100 100">
 <g transform="translate(-334.16 -306.52)" id="icon">
  <path d="m368.43 328.86c-0.0381 0.59723-0.0846 1.189-0.10583 1.795l-12.818-0.12092 0.37791 3.2802c0.28129 2.3831 0.67849 4.7121 1.213 7.1196 0.44852 1.7966 0.93302 3.1157 1.4776 4.4554 0.5446 1.3397 0.93265 2.3557 1.7119 3.6127 0.77922 1.257 1.9022 2.6797 2.993 3.677 1.0907 0.99729 2.0963 1.7033 3.42 2.4563 1.3237 0.75306 3.1482 1.4985 4.531 2.1389s2.8181 1.1738 3.7639 1.7119c0.37298 0.2122 1.29 0.7235 2.0142 1.3604 1.4211 1.2499 2.3429 1.8499 3.5182 2.77 0.24134 0.18884 0.73331 0.42832 0.72557 0.56685-0.15131 2.8263-0.15924 6.8644-0.12093 10.54 0.006 0.59618-2.5586 2.7553-2.5508 3.3255 0.004 0.27396-0.69534 0.85784-0.69534 0.85784l-3.8357 0.034-0.18129 3.6014-4.6104 0.15866-0.0226 1.9802h6.8551 16.136 6.8551l-0.0226-1.9802-4.6104-0.15866-0.1813-3.6014-3.8357-0.034s-0.69935-0.58388-0.69534-0.85784c0.008-0.57025-2.557-2.7293-2.5508-3.3255 0.0383-3.6752 0.0304-7.7133-0.12092-10.54-0.008-0.13853 0.48423-0.37795 0.72556-0.56685 1.1753-0.92006 2.0971-1.5201 3.5182-2.77 0.72421-0.63695 1.6412-1.1482 2.0142-1.3604 0.94577-0.53802 2.381-1.0715 3.7639-1.7119 1.3828-0.64039 3.2073-1.3858 4.531-2.1389 1.3237-0.75306 2.3293-1.459 3.42-2.4563s2.2137-2.4199 2.993-3.677c0.77922-1.257 1.1673-2.273 1.7119-3.6127 0.54459-1.3397 1.0291-2.6588 1.4776-4.4554 0.53456-2.4075 0.93176-4.7365 1.213-7.1196l0.37791-3.2802-12.818 0.12092c-0.0213-0.60603-0.0677-1.1978-0.10584-1.795h-15.728zm-8.601 5.2301 8.4725 0.0416c0.23195 7.5867 1.8107 14.391 4.2438 19.564-1.4265-0.28109-1.9817-0.52254-3.0156-1.0884-1.0596-0.57991-2.0537-1.4026-3.2311-2.479s-2.2632-2.1496-3.2424-3.8697c-0.97918-1.72-1.753-4.0104-2.2561-6.001-0.5031-1.9907-0.8661-4.076-0.94096-5.642-0.01-0.20007-0.0205-0.35191-0.0302-0.52528zm48.658 0c-0.01 0.17336-0.0207 0.3252-0.0302 0.52527-0.0749 1.5661-0.43788 3.6514-0.94097 5.642-0.5031 1.9907-1.2769 4.281-2.2561 6.001-0.97919 1.72-2.065 2.7932-3.2424 3.8697-1.1774 1.0764-2.1714 1.8991-3.2311 2.479-1.0339 0.56581-1.5891 0.80726-3.0156 1.0884 2.4331-5.1729 4.0118-11.977 4.2438-19.564z"/>
 </g>
</svg>
