<?xml version="1.0" encoding="UTF-8" standalone="no"?>
<!-- Created with Inkscape (http://www.inkscape.org/) -->

<svg
   xmlns:dc="http://purl.org/dc/elements/1.1/"
   xmlns:cc="http://creativecommons.org/ns#"
   xmlns:rdf="http://www.w3.org/1999/02/22-rdf-syntax-ns#"
   xmlns:svg="http://www.w3.org/2000/svg"
   xmlns="http://www.w3.org/2000/svg"
   xmlns:sodipodi="http://sodipodi.sourceforge.net/DTD/sodipodi-0.dtd"
   xmlns:inkscape="http://www.inkscape.org/namespaces/inkscape"
   width="20"
   height="20"
   viewBox="0 0 20 20"
   id="svg7670"
   version="1.1"
   inkscape:version="0.91 r13725"
   sodipodi:docname="coffeebean-spaced.svg">
  <defs
     id="defs7672" />
  <sodipodi:namedview
     id="base"
     pagecolor="#ffffff"
     bordercolor="#666666"
     borderopacity="1.0"
     inkscape:pageopacity="0.0"
     inkscape:pageshadow="2"
     inkscape:zoom="45.254834"
     inkscape:cx="9.3524662"
     inkscape:cy="9.0587892"
     inkscape:document-units="px"
     inkscape:current-layer="layer1"
     showgrid="false"
     fit-margin-top="0"
     fit-margin-left="0"
     fit-margin-right="0"
     fit-margin-bottom="0"
     inkscape:window-width="2492"
     inkscape:window-height="1417"
     inkscape:window-x="-8"
     inkscape:window-y="-8"
     inkscape:window-maximized="1"
     inkscape:snap-bbox="true"
     inkscape:snap-bbox-midpoints="true"
     inkscape:snap-page="true"
     inkscape:snap-object-midpoints="true"
     inkscape:snap-center="true"
     inkscape:bbox-nodes="true"
     units="px"
     inkscape:snap-intersection-paths="false"
     inkscape:snap-nodes="false"
     inkscape:bbox-paths="true">
    <inkscape:grid
       type="xygrid"
       id="grid3336"
       originx="1.8019715"
       originy="1.8885087" />
  </sodipodi:namedview>
  <metadata
     id="metadata7675">
    <rdf:RDF>
      <cc:Work
         rdf:about="">
        <dc:format>image/svg+xml</dc:format>
        <dc:type
           rdf:resource="http://purl.org/dc/dcmitype/StillImage" />
        <dc:title></dc:title>
      </cc:Work>
    </rdf:RDF>
  </metadata>
  <g
     inkscape:label="Layer 1"
     inkscape:groupmode="layer"
     id="layer1"
     transform="translate(-244.00912,-503.21413)">
    <path
       style="opacity:1;fill:#352815;fill-opacity:1;stroke:none;stroke-width:0;stroke-linecap:square;stroke-linejoin:miter;stroke-miterlimit:4;stroke-dasharray:none;stroke-dashoffset:0;stroke-opacity:1"
       d="m 261.80194,506.14924 -0.65241,0.62534 c -0.78094,0.74848 -3.80617,1.73699 -5.22641,3.20688 -1.36457,1.4122 -1.81674,3.49081 -2.90683,5.12423 -0.99175,1.486 -1.90188,3.21152 -3.29027,4.23082 -0.59705,0.43836 -1.98225,1.2213 -1.52143,1.88405 2.21925,3.1916 7.35049,0.11402 11.05628,-3.70935 3.7025,-3.82896 4.67598,-13.40819 2.54107,-11.36197 z m -1.02717,-0.90386 c 0.9481,-3.12622 -6.9691,-0.42395 -10.67493,3.3992 -3.70264,3.82909 -6.7245,9.18575 -3.86799,10.77337 0.58632,0.32583 1.28132,-0.0455 1.82318,-0.34348 3.20474,-1.76268 4.4979,-6.99647 7.47167,-9.84923 1.44217,-1.38345 3.4932,-1.49996 4.92289,-3.42205 0.12848,-0.17268 0.32518,-0.55781 0.32518,-0.55781 z"
       id="path5544-1-7-1"
       inkscape:connector-curvature="0"
       sodipodi:nodetypes="ssaasacsscssass" />
  </g>
</svg>
