<?xml version="1.0" encoding="UTF-8" standalone="no"?>
<!-- Created with Inkscape (http://www.inkscape.org/) -->

<svg
   xmlns:dc="http://purl.org/dc/elements/1.1/"
   xmlns:cc="http://creativecommons.org/ns#"
   xmlns:rdf="http://www.w3.org/1999/02/22-rdf-syntax-ns#"
   xmlns:svg="http://www.w3.org/2000/svg"
   xmlns="http://www.w3.org/2000/svg"
   xmlns:sodipodi="http://sodipodi.sourceforge.net/DTD/sodipodi-0.dtd"
   xmlns:inkscape="http://www.inkscape.org/namespaces/inkscape"
   width="20"
   height="20"
   viewBox="0 0 19.999999 19.999999"
   id="svg7670"
   version="1.1"
   inkscape:version="0.91 r13725"
   sodipodi:docname="coffeebean.svg">
  <defs
     id="defs7672" />
  <sodipodi:namedview
     id="base"
     pagecolor="#ffffff"
     bordercolor="#666666"
     borderopacity="1.0"
     inkscape:pageopacity="0.0"
     inkscape:pageshadow="2"
     inkscape:zoom="32"
     inkscape:cx="19.406749"
     inkscape:cy="1.795026"
     inkscape:document-units="px"
     inkscape:current-layer="layer1"
     showgrid="false"
     fit-margin-top="0"
     fit-margin-left="0"
     fit-margin-right="0"
     fit-margin-bottom="0"
     inkscape:window-width="2492"
     inkscape:window-height="1417"
     inkscape:window-x="-8"
     inkscape:window-y="-8"
     inkscape:window-maximized="1"
     inkscape:snap-bbox="true"
     inkscape:snap-bbox-midpoints="true"
     inkscape:snap-object-midpoints="true"
     inkscape:snap-center="true"
     units="px"
     inkscape:bbox-nodes="true"
     inkscape:bbox-paths="false"
     inkscape:snap-page="true"
     inkscape:snap-global="false" />
  <metadata
     id="metadata7675">
    <rdf:RDF>
      <cc:Work
         rdf:about="">
        <dc:format>image/svg+xml</dc:format>
        <dc:type
           rdf:resource="http://purl.org/dc/dcmitype/StillImage" />
        <dc:title></dc:title>
      </cc:Work>
    </rdf:RDF>
  </metadata>
  <g
     inkscape:label="Layer 1"
     inkscape:groupmode="layer"
     id="layer1"
     transform="translate(-244.54863,-502.25191)">
    <path
       style="opacity:1;fill:#352815;fill-opacity:1;stroke:none;stroke-width:0;stroke-linecap:square;stroke-linejoin:miter;stroke-miterlimit:4;stroke-dasharray:none;stroke-dashoffset:0;stroke-opacity:1"
       d="m 262.76429,504.80378 -0.688,0.65926 c -0.82325,0.78909 -4.01261,1.83124 -5.5099,3.3808 -1.43862,1.48892 -1.9153,3.68021 -3.06454,5.4022 -1.0455,1.56668 -2.00507,3.38583 -3.46879,4.46036 -0.62906,0.46261 -2.08982,1.28763 -1.60399,1.98627 2.33973,3.36475 7.74932,0.12096 11.65621,-3.91054 3.90327,-4.03661 4.92957,-14.1356 2.67891,-11.97835 z m -1.0829,-0.95299 c 0.99954,-3.29575 -7.34715,-0.44714 -11.25413,3.58366 -3.90344,4.03683 -7.08926,9.68411 -4.07776,11.35788 0.61802,0.34334 1.35074,-0.0512 1.9221,-0.36232 3.37853,-1.85832 4.74185,-7.37608 7.87696,-10.38355 1.52043,-1.45849 3.68279,-1.58142 5.19001,-3.60776 0.13584,-0.18112 0.34253,-0.5878 0.34253,-0.5878 z"
       id="path5544-1-7-1"
       inkscape:connector-curvature="0"
       sodipodi:nodetypes="ssaasacsscssass" />
  </g>
</svg>
