<?xml version="1.0" encoding="UTF-8" standalone="no"?>
<!-- Created with Inkscape (http://www.inkscape.org/) -->

<svg
   xmlns:dc="http://purl.org/dc/elements/1.1/"
   xmlns:cc="http://creativecommons.org/ns#"
   xmlns:rdf="http://www.w3.org/1999/02/22-rdf-syntax-ns#"
   xmlns:svg="http://www.w3.org/2000/svg"
   xmlns="http://www.w3.org/2000/svg"
   xmlns:sodipodi="http://sodipodi.sourceforge.net/DTD/sodipodi-0.dtd"
   xmlns:inkscape="http://www.inkscape.org/namespaces/inkscape"
   width="14.586326mm"
   height="14.586326mm"
   viewBox="0 0 51.683825 51.683831"
   id="svg6437"
   version="1.1"
   inkscape:version="0.91 r13725"
   sodipodi:docname="conferences.svg">
  <defs
     id="defs6439" />
  <sodipodi:namedview
     id="base"
     pagecolor="#ffffff"
     bordercolor="#666666"
     borderopacity="1.0"
     inkscape:pageopacity="0.0"
     inkscape:pageshadow="2"
     inkscape:zoom="0.37767376"
     inkscape:cx="-128.32834"
     inkscape:cy="-285.36401"
     inkscape:document-units="px"
     inkscape:current-layer="layer1"
     showgrid="true"
     inkscape:snap-grids="true"
     inkscape:snap-bbox="true"
     inkscape:snap-bbox-midpoints="true"
     inkscape:window-width="2492"
     inkscape:window-height="1417"
     inkscape:window-x="-8"
     inkscape:window-y="-8"
     inkscape:window-maximized="1"
     fit-margin-top="0"
     fit-margin-left="0"
     fit-margin-right="0"
     fit-margin-bottom="0">
    <inkscape:grid
       type="xygrid"
       id="grid6647"
       spacingx="120"
       spacingy="120"
       originx="-214.15806"
       originy="-694.15809" />
  </sodipodi:namedview>
  <metadata
     id="metadata6442">
    <rdf:RDF>
      <cc:Work
         rdf:about="">
        <dc:format>image/svg+xml</dc:format>
        <dc:type
           rdf:resource="http://purl.org/dc/dcmitype/StillImage" />
        <dc:title />
      </cc:Work>
    </rdf:RDF>
  </metadata>
  <g
     inkscape:label="Layer 1"
     inkscape:groupmode="layer"
     id="layer1"
     transform="translate(-214.15808,-306.5203)">
    <g
       transform="translate(-628.11021,-451.49546)"
       id="g6359">
      <g
         transform="translate(419.48029,-162.01781)"
         id="g13285">
        <path
           style="opacity:1;fill:#e3d5b9;fill-opacity:1;stroke:#352815;stroke-width:0.375;stroke-linecap:square;stroke-linejoin:miter;stroke-miterlimit:4;stroke-dasharray:none;stroke-dashoffset:0;stroke-opacity:1"
           d="m 474.28433,945.87549 a 25.654415,25.654415 0 0 1 -25.65442,25.65441 25.654415,25.654415 0 0 1 -25.65441,-25.65441 25.654415,25.654415 0 0 1 25.65441,-25.65442 25.654415,25.654415 0 0 1 25.65442,25.65442 z"
           id="path9763-8-4"
           inkscape:connector-curvature="0" />
      </g>
      <path
         inkscape:connector-curvature="0"
         id="path5797"
         d="m 867.84174,769.87379 a 14.093541,14.093541 0 0 0 -14.09376,14.09376 14.093541,14.093541 0 0 0 2.71746,8.29526 l 1.10471,-1.19328 a 12.502536,12.502536 0 0 1 -2.23115,-7.10198 12.502536,12.502536 0 0 1 12.50274,-12.50276 12.502536,12.502536 0 0 1 3.10589,0.40706 l 1.27871,-1.27878 a 14.093541,14.093541 0 0 0 -4.3846,-0.71928 z m 9.8894,3.98212 c -0.34238,-0.0224 -0.74027,0.1299 -1.06119,0.43816 l -3.14938,3.02506 c 0,0 -1.60099,-1.10138 -2.4735,-1.5568 -0.83106,-0.43324 -1.84807,-1.09207 -2.61957,-1.11401 -0.63959,-0.0208 -0.36048,-0.008 -0.36048,-0.008 l 3.95578,4.11736 -1.44031,1.70754 c 0,0 -1.06078,-0.5967 -1.72461,-0.61214 -0.50908,-0.0102 -0.87474,0.57332 -0.87474,0.57332 l 1.85512,0.93997 0.23927,0.57801 0.56712,0.26258 0.86541,1.89242 c 0,0 0.60072,-0.3438 0.60907,-0.85301 0.0109,-0.66393 -0.54379,-1.74795 -0.54379,-1.74795 l 1.76499,-1.36882 3.95577,4.11585 c 0,0 5e-4,0.28097 0.008,-0.35894 0.009,-0.77179 -0.6086,-1.81533 -1.00837,-2.6631 -0.42004,-0.89008 -1.45739,-2.53407 -1.45739,-2.53407 l 3.15094,-3.02665 c 0.51295,-0.49281 0.63317,-1.19779 0.27036,-1.57701 -0.13657,-0.14207 -0.32285,-0.21677 -0.52826,-0.22998 z m 3.93555,7.3895 -1.40611,1.40612 a 12.502536,12.502536 0 0 1 0.0839,1.31602 12.502536,12.502536 0 0 1 -12.50275,12.50266 12.502536,12.502536 0 0 1 -6.39354,-1.77428 l -1.10934,1.19474 a 14.093541,14.093541 0 0 0 7.50288,2.17054 14.093541,14.093541 0 0 0 14.09375,-14.09366 14.093541,14.093541 0 0 0 -0.2688,-2.72214 z m -14.74631,0.71778 -9.06282,10.0479 c -0.56204,0.58804 -1.43352,1.68044 -2.43157,1.76658 -0.63562,0.055 -1.34398,-0.32552 -1.71839,-0.84212 -0.31673,-0.43698 -0.32997,-1.07402 -0.22528,-1.6034 0.10411,-0.52654 0.81415,-1.39062 0.81415,-1.39062 l -0.95088,-2.5994 c 0,0 -1.60535,1.71416 -2.03694,2.77807 -0.36821,0.90781 -0.64245,1.96137 -0.40397,2.91169 0.30778,1.22626 1.13468,2.4413 2.23427,3.06546 1.30659,0.74166 3.03412,0.78804 4.48866,0.41176 1.2197,-0.31549 3.12454,-2.1271 3.12454,-2.1271 l 9.19953,-9.5118 -3.0313,-2.90702 z"
         style="opacity:1;fill:#352815;fill-opacity:1;stroke:none;stroke-width:0.375;stroke-linecap:square;stroke-linejoin:miter;stroke-miterlimit:4;stroke-dasharray:none;stroke-dashoffset:0;stroke-opacity:1" />
    </g>
  </g>
</svg>
