<?xml version="1.0" encoding="UTF-8" standalone="no"?>
<svg xmlns:rdf="http://www.w3.org/1999/02/22-rdf-syntax-ns#" xmlns="http://www.w3.org/2000/svg" height="14.586mm" width="14.586mm" version="1.1" xmlns:cc="http://creativecommons.org/ns#" xmlns:dc="http://purl.org/dc/elements/1.1/" viewBox="0 0 100 100">
 <g transform="translate(-214.16 -306.52)" id="icon">
  <path d="m263.64 329.46a27.269 27.269 0 0 0 -27.269 27.269 27.269 27.269 0 0 0 5.2578 16.05l2.1374-2.3088a24.19 24.19 0 0 1 -4.3169 -13.741 24.19 24.19 0 0 1 24.191 -24.191 24.19 24.19 0 0 1 6.0094 0.7876l2.4741-2.4742a27.269 27.269 0 0 0 -8.4835 -1.3917zm19.134 7.7048c-0.66245-0.0433-1.4323 0.25133-2.0532 0.84777l-6.0936 5.853s-3.0977-2.131-4.7858-3.0122c-1.608-0.83825-3.5757-2.113-5.0685-2.1554-1.2375-0.0402-0.69747-0.0155-0.69747-0.0155l7.6538 7.9664-2.7868 3.3038s-2.0524-1.1545-3.3368-1.1844c-0.98499-0.0197-1.6925 1.1093-1.6925 1.1093l3.5894 1.8187 0.46295 1.1184 1.0973 0.50805 1.6744 3.6615s1.1623-0.6652 1.1784-1.6504c0.0211-1.2846-1.0521-3.382-1.0521-3.382l3.415-2.6484 7.6538 7.9635s0.00097 0.54363 0.0155-0.69449c0.0174-1.4933-1.1776-3.5124-1.951-5.1527-0.81271-1.7222-2.8198-4.903-2.8198-4.903l6.0966-5.8561c0.99248-0.95351 1.2251-2.3175 0.52311-3.0513-0.26424-0.27489-0.62467-0.41942-1.0221-0.44498zm7.6147 14.298-2.7206 2.7206a24.19 24.19 0 0 1 0.16233 2.5463 24.19 24.19 0 0 1 -24.191 24.191 24.19 24.19 0 0 1 -12.37 -3.433l-2.1464 2.3116a27.269 27.269 0 0 0 14.517 4.1996 27.269 27.269 0 0 0 27.269 -27.269 27.269 27.269 0 0 0 -0.52009 -5.2669zm-28.532 1.3888-17.535 19.441c-1.0874 1.1378-2.7736 3.2514-4.7047 3.4181-1.2298 0.10641-2.6004-0.62983-3.3248-1.6294-0.61282-0.84549-0.63844-2.0781-0.43588-3.1023 0.20143-1.0188 1.5752-2.6906 1.5752-2.6906l-1.8398-5.0294s-3.1061 3.3166-3.9412 5.3751c-0.71243 1.7565-1.243 3.7949-0.78162 5.6337 0.59551 2.3726 2.1954 4.7235 4.323 5.9312 2.528 1.435 5.8705 1.5247 8.6848 0.79669 2.3599-0.61042 6.0455-4.1156 6.0455-4.1156l17.8-18.404-5.8651-5.6246z"/>
 </g>
</svg>
