<?xml version="1.0" encoding="UTF-8" standalone="no"?>
<!-- Created with Inkscape (http://www.inkscape.org/) -->

<svg
   xmlns:dc="http://purl.org/dc/elements/1.1/"
   xmlns:cc="http://creativecommons.org/ns#"
   xmlns:rdf="http://www.w3.org/1999/02/22-rdf-syntax-ns#"
   xmlns:svg="http://www.w3.org/2000/svg"
   xmlns="http://www.w3.org/2000/svg"
   xmlns:sodipodi="http://sodipodi.sourceforge.net/DTD/sodipodi-0.dtd"
   xmlns:inkscape="http://www.inkscape.org/namespaces/inkscape"
   width="14.586317mm"
   height="14.586326mm"
   viewBox="0 0 51.683795 51.683831"
   id="svg6437"
   version="1.1"
   inkscape:version="0.91 r13725"
   sodipodi:docname="courses.svg">
  <defs
     id="defs6439" />
  <sodipodi:namedview
     id="base"
     pagecolor="#ffffff"
     bordercolor="#666666"
     borderopacity="1.0"
     inkscape:pageopacity="0.0"
     inkscape:pageshadow="2"
     inkscape:zoom="1.510695"
     inkscape:cx="-123.50085"
     inkscape:cy="-19.482405"
     inkscape:document-units="px"
     inkscape:current-layer="layer1"
     showgrid="true"
     inkscape:snap-grids="true"
     inkscape:snap-bbox="true"
     inkscape:snap-bbox-midpoints="true"
     inkscape:window-width="2492"
     inkscape:window-height="1417"
     inkscape:window-x="-8"
     inkscape:window-y="-8"
     inkscape:window-maximized="1"
     fit-margin-top="0"
     fit-margin-left="0"
     fit-margin-right="0"
     fit-margin-bottom="0">
    <inkscape:grid
       type="xygrid"
       id="grid6647"
       spacingx="120"
       spacingy="120"
       originx="-334.15807"
       originy="-814.15809" />
  </sodipodi:namedview>
  <metadata
     id="metadata6442">
    <rdf:RDF>
      <cc:Work
         rdf:about="">
        <dc:format>image/svg+xml</dc:format>
        <dc:type
           rdf:resource="http://purl.org/dc/dcmitype/StillImage" />
        <dc:title />
      </cc:Work>
    </rdf:RDF>
  </metadata>
  <g
     inkscape:label="Layer 1"
     inkscape:groupmode="layer"
     id="layer1"
     transform="translate(-334.1581,-186.5203)">
    <g
       transform="translate(-1348.5288,-261.47198)"
       id="g6364">
      <path
         style="opacity:1;fill:#e3d5b9;fill-opacity:1;stroke:#352815;stroke-width:0.375;stroke-linecap:square;stroke-linejoin:miter;stroke-miterlimit:4;stroke-dasharray:none;stroke-dashoffset:0;stroke-opacity:1"
         d="m 1734.1832,473.8342 a 25.654415,25.654415 0 0 1 -25.6544,25.65441 25.654415,25.654415 0 0 1 -25.6544,-25.65441 25.654415,25.654415 0 0 1 25.6544,-25.65442 25.654415,25.654415 0 0 1 25.6544,25.65442 z"
         id="path9763-8-4-6-7"
         inkscape:connector-curvature="0" />
      <path
         inkscape:connector-curvature="0"
         id="rect4206"
         d="m 1719.2986,458.25902 c -1.2843,1.9e-4 -2.0802,0.14715 -2.9434,0.9668 -0.062,0.0586 -0.1211,0.11788 -0.1797,0.17968 l -21.4687,21.4668 c -1.0961,0.8981 -1.7456,2.43466 -1.7637,3.7207 -7e-4,2.66032 2.1561,4.8171 4.8164,4.81641 1.4419,-0.16366 2.5888,-0.66598 3.4863,-1.50977 l 9.8379,-9.83789 c 0.2616,0.79803 0.4118,1.65919 0.4121,2.5625 2e-4,0.22976 0.1379,1.52505 0.1211,2.96289 -0.022,1.87891 -0.2036,4.00133 -0.2461,4.3086 0.01,-0.008 0.018,-0.0196 0.025,-0.0274 l 3.5508,-9.64648 2.586,3.34375 c -0.01,-0.19038 0.094,-1.57159 0.084,-2.95508 -0.01,-1.45709 -0.1325,-2.91666 -0.1445,-2.98828 -0.1761,-1.07377 -0.4941,-2.08818 -0.9316,-3.01758 l 6.1758,-6.17383 c 1.0961,-0.8981 1.3803,-2.06942 1.3984,-3.35547 7e-4,-2.66032 -2.1561,-4.81709 -4.8164,-4.8164 z m -0.877,1.44336 c 0.2404,-0.024 0.5046,0.002 0.877,0.002 1.8619,-2.7e-4 3.3714,1.50919 3.3711,3.37109 -0.034,0.8309 0.051,1.08405 -0.3457,1.60547 l -1.6934,1.7461 -4.3672,4.44726 c -0.1343,0.1368 -0.3047,0.30312 -0.4433,0.44336 -1.3139,-2.01361 -3.2509,-3.45176 -5.5,-3.94726 l 1.2363,-1.23633 c 2.002,-2.10003 4.3786,-4.26211 6.1289,-6.12695 0.2783,-0.2055 0.4959,-0.2807 0.7363,-0.30469 z m -13.2636,13.63867 c 2.2148,5.4e-4 4.1618,1.30754 5.2949,3.28516 -2.6941,2.63656 -5.4993,5.38153 -7.8906,7.84765 -0.066,-2.54461 -2.0979,-4.61122 -4.6563,-4.68945 l 6.3652,-6.36523 c 0.2957,-0.0452 0.5918,-0.0779 0.8868,-0.0781 z m -7.3985,7.88281 c 1.8604,8.1e-4 3.3684,1.50875 3.3692,3.36914 10e-5,0.70891 -0.1359,1.49915 -0.5938,2.03907 -0.6637,0.78264 -1.8018,1.26813 -2.7754,1.33203 -1.8579,0.12194 -3.3713,-1.50919 -3.3711,-3.3711 0.054,-1.32523 0.6955,-2.14296 1.5235,-2.8164 0.4987,-0.40561 1.1911,-0.55239 1.8476,-0.55274 z"
         style="opacity:1;fill:#352815;fill-opacity:1;stroke:none;stroke-width:0.89999998;stroke-linecap:square;stroke-linejoin:miter;stroke-miterlimit:4;stroke-dasharray:none;stroke-dashoffset:0;stroke-opacity:1" />
    </g>
  </g>
</svg>
