<?xml version="1.0" encoding="UTF-8" standalone="no"?>
<svg xmlns:rdf="http://www.w3.org/1999/02/22-rdf-syntax-ns#" xmlns="http://www.w3.org/2000/svg" height="14.586mm" width="14.586mm" version="1.1" xmlns:cc="http://creativecommons.org/ns#" xmlns:dc="http://purl.org/dc/elements/1.1/" viewBox="0 0 100 100">
 <g transform="translate(-334.16 -186.52)" id="icon">
  <path d="m405 206.38c-2.4849 0.00037-4.0249 0.28471-5.695 1.8706-0.11996 0.11339-0.23431 0.22808-0.34769 0.34766l-41.539 41.535c-2.1208 1.7377-3.3775 4.7107-3.4125 7.199-0.001 5.1473 4.1717 9.3203 9.319 9.319 2.7898-0.31666 5.0089-1.2886 6.7454-2.9212l19.035-19.035c0.50616 1.5441 0.79677 3.2103 0.79735 4.958 0.00039 0.44455 0.26682 2.9507 0.23431 5.7327-0.0426 3.6354-0.39393 7.7419-0.47616 8.3365 0.0193-0.0155 0.0348-0.0379 0.0484-0.053l6.8702-18.664 5.0035 6.4696c-0.0194-0.36836 0.18188-3.0408 0.16253-5.7176-0.0194-2.8192-0.25637-5.6433-0.27959-5.7818-0.34072-2.0776-0.956-4.0403-1.8025-5.8385l11.949-11.945c2.1208-1.7377 2.6707-4.004 2.7057-6.4923 0.001-5.1473-4.1717-9.3203-9.319-9.319zm-1.6968 2.7927c0.46513-0.0464 0.97632 0.004 1.6968 0.004 3.6025-0.00052 6.5231 2.92 6.5226 6.5225-0.0658 1.6077 0.0987 2.0975-0.66888 3.1063l-3.2765 3.3784-8.4498 8.6048c-0.25985 0.26468-0.58954 0.58649-0.85771 0.85783-2.5422-3.896-6.29-6.6786-10.642-7.6373l2.392-2.3921c3.8736-4.0632 8.4719-8.2465 11.858-11.855 0.53847-0.39761 0.95949-0.54311 1.4246-0.58953zm-25.663 26.389c4.2853 0.001 8.0524 2.5299 10.245 6.3563-5.2126 5.1013-10.64 10.412-15.267 15.184-0.1277-4.9234-4.0591-8.922-9.0092-9.0733l12.316-12.316c0.57213-0.0875 1.145-0.15073 1.7158-0.15111zm-14.315 15.252c3.5996 0.002 6.5173 2.9192 6.5189 6.5188 0.00019 1.3716-0.26295 2.9006-1.1489 3.9453-1.2842 1.5143-3.4862 2.4536-5.37 2.5773-3.5947 0.23594-6.5229-2.92-6.5226-6.5225 0.10448-2.5641 1.3457-4.1463 2.9477-5.4493 0.96491-0.78479 2.3046-1.0688 3.5748-1.0695z"/>
 </g>
</svg>
