<?xml version="1.0" encoding="UTF-8" standalone="no"?>
<svg xmlns:rdf="http://www.w3.org/1999/02/22-rdf-syntax-ns#" xmlns="http://www.w3.org/2000/svg" height="14.586mm" width="14.586mm" version="1.1" xmlns:cc="http://creativecommons.org/ns#" xmlns:dc="http://purl.org/dc/elements/1.1/" viewBox="0 0 100 100">
 <g transform="translate(-94.158 -66.52)" id="circle">
  <g transform="translate(204.15 -153.72)">
   <circle cx="-60.031" stroke-linecap="square" cy="270.2" r="49.657" stroke-width=".77202"/>
  </g>
 </g>
 <g transform="translate(-94.158 -66.52)" id="icon">
  <g transform="translate(204.15 -153.72)">
   <path d="m-59.44 247.08-30.009 10.277 30.42 19.218 30.215-19.218-30.626-10.277zm-30.06 12.024-1.7469 21.325 1.9524 5.909 1.8503-6.1662-2.0558-21.068zm49.742 7.1427-19.681 12.435-19.269-12.332s-1.0014 6.989-1.7832 10.428c-0.08724 0.38333-0.28968 0.74269-0.32365 1.1344-0.02818 0.326-0.01158 0.67054 0.10287 0.97649 0.47034 1.2399 1.4173 2.2588 2.3124 3.2372 2.1481 2.3482 4.6599 4.3616 7.2454 6.2173 2.0715 1.4867 4.2666 2.8271 6.5772 3.9055 0.9376 0.43751 1.9026 0.89636 2.9289 1.0276 0.61376 0.0784 1.2431-0.0346 1.8503-0.15364 1.5682-0.30805 3.1095-0.79746 4.5731-1.4392 2.2979-1.0076 4.424-2.3812 6.5261-3.751 2.5459-1.659 5.0425-3.4158 7.3482-5.3952 1.1212-0.96246 2.327-1.897 3.1345-3.1345 0.18085-0.277 0.29839-0.60026 0.35936-0.92536 0.06311-0.33674 0.03069-0.68641 0-1.0276-0.1546-1.7335-0.92481-5.1386-0.92481-5.1386l-0.97597-6.0635z" fill-rule="evenodd"/>
  </g>
 </g>
</svg>
