<?xml version="1.0" encoding="UTF-8" standalone="no"?>
<!-- Created with Inkscape (http://www.inkscape.org/) -->

<svg
   xmlns:dc="http://purl.org/dc/elements/1.1/"
   xmlns:cc="http://creativecommons.org/ns#"
   xmlns:rdf="http://www.w3.org/1999/02/22-rdf-syntax-ns#"
   xmlns:svg="http://www.w3.org/2000/svg"
   xmlns="http://www.w3.org/2000/svg"
   xmlns:sodipodi="http://sodipodi.sourceforge.net/DTD/sodipodi-0.dtd"
   xmlns:inkscape="http://www.inkscape.org/namespaces/inkscape"
   width="14.586325mm"
   height="14.586326mm"
   viewBox="0 0 51.683824 51.683831"
   id="svg6437"
   version="1.1"
   inkscape:version="0.91 r13725"
   sodipodi:docname="education.svg">
  <defs
     id="defs6439" />
  <sodipodi:namedview
     id="base"
     pagecolor="#ffffff"
     bordercolor="#666666"
     borderopacity="1.0"
     inkscape:pageopacity="0.0"
     inkscape:pageshadow="2"
     inkscape:zoom="1.0682227"
     inkscape:cx="153.28387"
     inkscape:cy="-229.46746"
     inkscape:document-units="px"
     inkscape:current-layer="layer1"
     showgrid="true"
     inkscape:snap-grids="true"
     inkscape:snap-bbox="true"
     inkscape:snap-bbox-midpoints="true"
     inkscape:window-width="2492"
     inkscape:window-height="1417"
     inkscape:window-x="-8"
     inkscape:window-y="-8"
     inkscape:window-maximized="1"
     fit-margin-top="0"
     fit-margin-left="0"
     fit-margin-right="0"
     fit-margin-bottom="0">
    <inkscape:grid
       type="xygrid"
       id="grid6647"
       spacingx="120"
       spacingy="120"
       originx="-94.158081"
       originy="-934.15808" />
  </sodipodi:namedview>
  <metadata
     id="metadata6442">
    <rdf:RDF>
      <cc:Work
         rdf:about="">
        <dc:format>image/svg+xml</dc:format>
        <dc:type
           rdf:resource="http://purl.org/dc/dcmitype/StillImage" />
        <dc:title />
      </cc:Work>
    </rdf:RDF>
  </metadata>
  <g
     inkscape:label="Layer 1"
     inkscape:groupmode="layer"
     id="layer1"
     transform="translate(-94.158092,-66.52031)">
    <g
       transform="translate(204.1457,-153.71804)"
       id="g13250">
      <path
         style="opacity:1;fill:#e3d5b9;fill-opacity:1;stroke:#352815;stroke-width:0.375;stroke-linecap:square;stroke-linejoin:miter;stroke-miterlimit:4;stroke-dasharray:none;stroke-dashoffset:0;stroke-opacity:1"
         d="m -58.491283,246.08026 a 25.654415,25.654415 0 0 1 -25.654416,25.65442 25.654415,25.654415 0 0 1 -25.654411,-25.65442 25.654415,25.654415 0 0 1 25.654411,-25.65441 25.654415,25.654415 0 0 1 25.654416,25.65441 z"
         id="path9763-8-3-5-8-7"
         inkscape:connector-curvature="0" />
      <path
         inkscape:connector-curvature="0"
         id="path11767-0"
         d="m -83.839654,234.10616 -15.5481,5.32479 15.76108,9.95742 15.65492,-9.95742 -15.8679,-5.32479 z m -15.5749,6.2299 -0.905096,11.04905 1.011576,3.06156 0.95868,-3.19482 -1.06516,-10.91579 z m 25.77208,3.70076 -10.19718,6.44288 -9.98389,-6.38964 c 0,0 -0.51885,3.62115 -0.92392,5.40274 -0.0452,0.19861 -0.15009,0.3848 -0.16769,0.58773 -0.0146,0.16891 -0.006,0.34742 0.0533,0.50594 0.24369,0.64242 0.73435,1.17032 1.1981,1.67727 1.11295,1.21664 2.41437,2.25984 3.754,3.2213 1.07329,0.77028 2.21063,1.46479 3.40778,2.0235 0.48579,0.22668 0.98577,0.46442 1.51754,0.53239 0.318,0.0406 0.64406,-0.0179 0.95865,-0.0796 0.81249,-0.15961 1.6111,-0.41318 2.36943,-0.74569 1.19057,-0.52206 2.29214,-1.23375 3.3813,-1.94349 1.31908,-0.85954 2.61261,-1.76981 3.80724,-2.79535 0.58092,-0.49867 1.20566,-0.98286 1.62403,-1.62403 0.0937,-0.14352 0.1546,-0.31101 0.18619,-0.47945 0.0327,-0.17447 0.0159,-0.35564 0,-0.53243 -0.0801,-0.89815 -0.47916,-2.66239 -0.47916,-2.66239 l -0.50567,-3.14159 z"
         style="fill:#352815;fill-opacity:1;fill-rule:evenodd;stroke:none;stroke-width:1px;stroke-linecap:butt;stroke-linejoin:miter;stroke-opacity:1" />
    </g>
  </g>
</svg>
