<?xml version="1.0" encoding="UTF-8" standalone="no"?>
<svg xmlns:rdf="http://www.w3.org/1999/02/22-rdf-syntax-ns#" xmlns="http://www.w3.org/2000/svg" height="14.586mm" width="14.586mm" version="1.1" xmlns:cc="http://creativecommons.org/ns#" xmlns:dc="http://purl.org/dc/elements/1.1/" viewBox="0 0 100 100">
 <g transform="translate(-334.16 -66.52)" id="icon">
  <path d="m16.049 13.232v16.582l9.551 8.291v-16.582l-9.551-8.291zm19.586 0.012l-9.551 8.291v16.582l9.551-8.291v-16.582zm-21.801 0.74v16.582l9.551 6.663v-0.09l-7.975-6.577v-15.478l-1.576-1.1zm24.016 0.012l-1.577 1.1v15.478l-7.974 6.576v0.09l9.551-6.662v-16.582zm-26.399 2.082v16.58l9.551 3.949v-0.076l-7.807-5.109v-14.623l-1.744-0.721zm28.781 0.012l-1.744 0.721v14.625l-7.806 5.107v0.076l9.55-3.947v-16.582z" transform="matrix(1.9348 0 0 1.9348 334.16 66.52)"/>
 </g>
</svg>
