<?xml version="1.0" encoding="UTF-8" standalone="no"?>
<svg xmlns:rdf="http://www.w3.org/1999/02/22-rdf-syntax-ns#" xmlns="http://www.w3.org/2000/svg" height="14.586mm" width="14.586mm" version="1.1" xmlns:cc="http://creativecommons.org/ns#" xmlns:dc="http://purl.org/dc/elements/1.1/" viewBox="0 0 100 100">
 <g transform="translate(-214.16 -186.52)" id="icon">
  <path d="m25.842 10.105a2.3155 2.3155 0 0 0 -2.317 2.317 2.3155 2.3155 0 0 0 2.317 2.314 2.3155 2.3155 0 0 0 2.316 -2.314 2.3155 2.3155 0 0 0 -2.316 -2.317zm-1.959 5.213c-1.466 0-2.66 1.281-2.781 2.922h9.48c-0.121-1.641-1.315-2.922-2.781-2.922h-0.803l-1.156 2.002-1.156-2.002h-0.803zm-6.164 4.545l0.967 3.17h0.793v6.147h1.041v-6.147h5.322 5.322v6.147h1.041v-6.147h0.793l0.967-3.17h-8.123-8.123zm-3.254 9.237a2.3155 2.3155 0 0 0 -2.317 2.314 2.3155 2.3155 0 0 0 2.317 2.316 2.3155 2.3155 0 0 0 2.314 -2.316 2.3155 2.3155 0 0 0 -2.314 -2.314zm11.377 0a2.3155 2.3155 0 0 0 -2.317 2.314 2.3155 2.3155 0 0 0 2.317 2.316 2.3155 2.3155 0 0 0 2.316 -2.316 2.3155 2.3155 0 0 0 -2.316 -2.314zm11.377 0a2.3155 2.3155 0 0 0 -2.315 2.314 2.3155 2.3155 0 0 0 2.315 2.316 2.3155 2.3155 0 0 0 2.316 -2.316 2.3155 2.3155 0 0 0 -2.316 -2.314zm-24.713 5.212c-1.466 0-2.66 1.281-2.7814 2.922h9.4804c-0.121-1.641-1.317-2.922-2.783-2.922h-3.916zm11.377 0c-1.466 0-2.66 1.281-2.781 2.922h9.48c-0.121-1.641-1.315-2.922-2.781-2.922h-3.918zm11.379 0c-1.466 0-2.662 1.281-2.783 2.922h9.482c-0.121-1.641-1.317-2.922-2.783-2.922h-3.916z" transform="matrix(1.9348 0 0 1.9348 214.16 186.52)"/>
 </g>
</svg>
