<?xml version="1.0" encoding="UTF-8" standalone="no"?>
<svg xmlns:rdf="http://www.w3.org/1999/02/22-rdf-syntax-ns#" xmlns="http://www.w3.org/2000/svg" height="14.586mm" width="14.586mm" version="1.1" xmlns:cc="http://creativecommons.org/ns#" xmlns:dc="http://purl.org/dc/elements/1.1/" viewBox="0 0 100 100">
 <g transform="translate(-214.16 -66.52)" id="circle">
  <circle cx="264.16" stroke-linecap="square" cy="116.52" r="49.549" stroke-width=".77394"/>
 </g>
 <g transform="translate(-214.16 -66.52)" id="icon">
  <path d="m238.93 100.77c-2.1354 0-3.8543 1.7189-3.8543 3.8542v23.797c0 2.1354 1.7189 3.8543 3.8543 3.8543h50.455c2.1354 0 3.8543-1.7189 3.8543-3.8543v-23.797c0-2.1353-1.719-3.8542-3.8543-3.8542h-50.455zm0.99259 2.2596a1.9816 1.9816 0 0 1 1.9813 1.9814 1.9816 1.9816 0 0 1 -1.9813 1.9813 1.9816 1.9816 0 0 1 -1.9819 -1.9813 1.9816 1.9816 0 0 1 1.9819 -1.9814zm6.0587 0a1.9816 1.9816 0 0 1 1.9815 1.9814 1.9816 1.9816 0 0 1 -1.9815 1.9813 1.9816 1.9816 0 0 1 -1.9818 -1.9813 1.9816 1.9816 0 0 1 1.9818 -1.9814zm6.0585 0a1.9816 1.9816 0 0 1 1.9818 1.9814 1.9816 1.9816 0 0 1 -1.9818 1.9813 1.9816 1.9816 0 0 1 -1.9814 -1.9813 1.9816 1.9816 0 0 1 1.9814 -1.9814zm6.0589 0a1.9816 1.9816 0 0 1 1.9817 1.9814 1.9816 1.9816 0 0 1 -1.9817 1.9813 1.9816 1.9816 0 0 1 -1.9815 -1.9813 1.9816 1.9816 0 0 1 1.9815 -1.9814zm6.0587 0a1.9816 1.9816 0 0 1 1.9815 1.9814 1.9816 1.9816 0 0 1 -1.9815 1.9813 1.9816 1.9816 0 0 1 -1.9818 -1.9813 1.9816 1.9816 0 0 1 1.9818 -1.9814zm6.0588 0a1.9816 1.9816 0 0 1 1.9814 1.9814 1.9816 1.9816 0 0 1 -1.9814 1.9813 1.9816 1.9816 0 0 1 -1.9817 -1.9813 1.9816 1.9816 0 0 1 1.9817 -1.9814zm6.0586 0a1.9816 1.9816 0 0 1 1.9817 1.9814 1.9816 1.9816 0 0 1 -1.9817 1.9813 1.9816 1.9816 0 0 1 -1.9815 -1.9813 1.9816 1.9816 0 0 1 1.9815 -1.9814zm6.0588 0a1.9816 1.9816 0 0 1 1.9818 1.9814 1.9816 1.9816 0 0 1 -1.9818 1.9813 1.9816 1.9816 0 0 1 -1.9815 -1.9813 1.9816 1.9816 0 0 1 1.9815 -1.9814zm6.0587 0a1.9816 1.9816 0 0 1 1.9815 1.9814 1.9816 1.9816 0 0 1 -1.9815 1.9813 1.9816 1.9816 0 0 1 -1.9817 -1.9813 1.9816 1.9816 0 0 1 1.9817 -1.9814zm-42.411 6.0584a1.9816 1.9816 0 0 1 1.9815 1.9818 1.9816 1.9816 0 0 1 -1.9815 1.9814 1.9816 1.9816 0 0 1 -1.9818 -1.9814 1.9816 1.9816 0 0 1 1.9818 -1.9818zm6.0585 0a1.9816 1.9816 0 0 1 1.9818 1.9818 1.9816 1.9816 0 0 1 -1.9818 1.9814 1.9816 1.9816 0 0 1 -1.9814 -1.9814 1.9816 1.9816 0 0 1 1.9814 -1.9818zm6.0589 0a1.9816 1.9816 0 0 1 1.9817 1.9818 1.9816 1.9816 0 0 1 -1.9817 1.9814 1.9816 1.9816 0 0 1 -1.9815 -1.9814 1.9816 1.9816 0 0 1 1.9815 -1.9818zm6.0587 0a1.9816 1.9816 0 0 1 1.9815 1.9818 1.9816 1.9816 0 0 1 -1.9815 1.9814 1.9816 1.9816 0 0 1 -1.9818 -1.9814 1.9816 1.9816 0 0 1 1.9818 -1.9818zm6.0588 0a1.9816 1.9816 0 0 1 1.9814 1.9818 1.9816 1.9816 0 0 1 -1.9814 1.9814 1.9816 1.9816 0 0 1 -1.9817 -1.9814 1.9816 1.9816 0 0 1 1.9817 -1.9818zm6.0586 0a1.9816 1.9816 0 0 1 1.9817 1.9818 1.9816 1.9816 0 0 1 -1.9817 1.9814 1.9816 1.9816 0 0 1 -1.9815 -1.9814 1.9816 1.9816 0 0 1 1.9815 -1.9818zm6.0588 0a1.9816 1.9816 0 0 1 1.9818 1.9818 1.9816 1.9816 0 0 1 -1.9818 1.9814 1.9816 1.9816 0 0 1 -1.9815 -1.9814 1.9816 1.9816 0 0 1 1.9815 -1.9818zm-18.176 6.0589a1.9816 1.9816 0 0 1 1.9815 1.9814 1.9816 1.9816 0 0 1 -1.9815 1.9818 1.9816 1.9816 0 0 1 -1.9818 -1.9818 1.9816 1.9816 0 0 1 1.9818 -1.9814zm24.235 0a1.9816 1.9816 0 0 1 1.9815 1.9814 1.9816 1.9816 0 0 1 -1.9815 1.9818 1.9816 1.9816 0 0 1 -1.9817 -1.9818 1.9816 1.9816 0 0 1 1.9817 -1.9814zm-48.47 6.0588a1.9816 1.9816 0 0 1 1.9813 1.9814 1.9816 1.9816 0 0 1 -1.9813 1.9816 1.9816 1.9816 0 0 1 -1.9815 -1.9816 1.9816 1.9816 0 0 1 1.9815 -1.9814zm6.0587 0a1.9816 1.9816 0 0 1 1.9815 1.9814 1.9816 1.9816 0 0 1 -1.9815 1.9816 1.9816 1.9816 0 0 1 -1.9818 -1.9816 1.9816 1.9816 0 0 1 1.9818 -1.9814zm12.117 0a1.9816 1.9816 0 0 1 1.9817 1.9814 1.9816 1.9816 0 0 1 -1.9817 1.9816 1.9816 1.9816 0 0 1 -1.9815 -1.9816 1.9816 1.9816 0 0 1 1.9815 -1.9814zm12.118 0a1.9816 1.9816 0 0 1 1.9814 1.9814 1.9816 1.9816 0 0 1 -1.9814 1.9816 1.9816 1.9816 0 0 1 -1.9817 -1.9816 1.9816 1.9816 0 0 1 1.9817 -1.9814zm6.0586 0a1.9816 1.9816 0 0 1 1.9817 1.9814 1.9816 1.9816 0 0 1 -1.9817 1.9816 1.9816 1.9816 0 0 1 -1.9815 -1.9816 1.9816 1.9816 0 0 1 1.9815 -1.9814zm6.0588 0a1.9816 1.9816 0 0 1 1.9818 1.9814 1.9816 1.9816 0 0 1 -1.9818 1.9816 1.9816 1.9816 0 0 1 -1.9815 -1.9816 1.9816 1.9816 0 0 1 1.9815 -1.9814zm-42.411 7.0493a0.99079 0.99079 0 0 1 0.9908 0.99093 0.99079 0.99079 0 0 1 -0.9908 0.99094 0.99079 0.99079 0 0 1 -0.99095 -0.99094 0.99079 0.99079 0 0 1 0.99095 -0.99093zm6.0587 0a0.99079 0.99079 0 0 1 0.99056 0.99093 0.99079 0.99079 0 0 1 -0.99056 0.99094 0.99079 0.99079 0 0 1 -0.99096 -0.99094 0.99079 0.99079 0 0 1 0.99096 -0.99093zm6.0585 0a0.99079 0.99079 0 0 1 0.99082 0.99093 0.99079 0.99079 0 0 1 -0.99082 0.99094 0.99079 0.99079 0 0 1 -0.99056 -0.99094 0.99079 0.99079 0 0 1 0.99056 -0.99093zm6.0589 0a0.99079 0.99079 0 0 1 0.99081 0.99093 0.99079 0.99079 0 0 1 -0.99081 0.99094 0.99079 0.99079 0 0 1 -0.99091 -0.99094 0.99079 0.99079 0 0 1 0.99091 -0.99093zm6.0587 0a0.99079 0.99079 0 0 1 0.99093 0.99093 0.99079 0.99079 0 0 1 -0.99093 0.99094 0.99079 0.99079 0 0 1 -0.99095 -0.99094 0.99079 0.99079 0 0 1 0.99095 -0.99093zm6.0588 0a0.99079 0.99079 0 0 1 0.9905 0.99093 0.99079 0.99079 0 0 1 -0.9905 0.99094 0.99079 0.99079 0 0 1 -0.99081 -0.99094 0.99079 0.99079 0 0 1 0.99081 -0.99093zm6.0586 0a0.99079 0.99079 0 0 1 0.99085 0.99093 0.99079 0.99079 0 0 1 -0.99085 0.99094 0.99079 0.99079 0 0 1 -0.99055 -0.99094 0.99079 0.99079 0 0 1 0.99055 -0.99093zm6.0588 0a0.99079 0.99079 0 0 1 0.99096 0.99093 0.99079 0.99079 0 0 1 -0.99096 0.99094 0.99079 0.99079 0 0 1 -0.99093 -0.99094 0.99079 0.99079 0 0 1 0.99093 -0.99093zm6.0587 0a0.99079 0.99079 0 0 1 0.99095 0.99093 0.99079 0.99079 0 0 1 -0.99095 0.99094 0.99079 0.99079 0 0 1 -0.9908 -0.99094 0.99079 0.99079 0 0 1 0.9908 -0.99093z"/>
 </g>
</svg>
