<?xml version="1.0" encoding="UTF-8" standalone="no"?>
<!-- Created with Inkscape (http://www.inkscape.org/) -->

<svg
   xmlns:dc="http://purl.org/dc/elements/1.1/"
   xmlns:cc="http://creativecommons.org/ns#"
   xmlns:rdf="http://www.w3.org/1999/02/22-rdf-syntax-ns#"
   xmlns:svg="http://www.w3.org/2000/svg"
   xmlns="http://www.w3.org/2000/svg"
   xmlns:sodipodi="http://sodipodi.sourceforge.net/DTD/sodipodi-0.dtd"
   xmlns:inkscape="http://www.inkscape.org/namespaces/inkscape"
   width="14.586326mm"
   height="14.586326mm"
   viewBox="0 0 51.683827 51.683831"
   id="svg6437"
   version="1.1"
   inkscape:version="0.91 r13725"
   sodipodi:docname="punchcard.svg">
  <defs
     id="defs6439" />
  <sodipodi:namedview
     id="base"
     pagecolor="#ffffff"
     bordercolor="#666666"
     borderopacity="1.0"
     inkscape:pageopacity="0.0"
     inkscape:pageshadow="2"
     inkscape:zoom="0.75534751"
     inkscape:cx="60.694376"
     inkscape:cy="-334.59773"
     inkscape:document-units="px"
     inkscape:current-layer="layer1"
     showgrid="true"
     inkscape:snap-grids="true"
     inkscape:snap-bbox="true"
     inkscape:snap-bbox-midpoints="true"
     inkscape:window-width="2492"
     inkscape:window-height="1417"
     inkscape:window-x="-8"
     inkscape:window-y="-8"
     inkscape:window-maximized="1"
     fit-margin-top="0"
     fit-margin-left="0"
     fit-margin-right="0"
     fit-margin-bottom="0">
    <inkscape:grid
       type="xygrid"
       id="grid6647"
       spacingx="120"
       spacingy="120"
       originx="-214.15807"
       originy="-934.15808" />
  </sodipodi:namedview>
  <metadata
     id="metadata6442">
    <rdf:RDF>
      <cc:Work
         rdf:about="">
        <dc:format>image/svg+xml</dc:format>
        <dc:type
           rdf:resource="http://purl.org/dc/dcmitype/StillImage" />
        <dc:title />
      </cc:Work>
    </rdf:RDF>
  </metadata>
  <g
     inkscape:label="Layer 1"
     inkscape:groupmode="layer"
     id="layer1"
     transform="translate(-214.15809,-66.52031)">
    <g
       id="g13289"
       transform="translate(204.56694,-559.76076)">
      <path
         style="opacity:1;fill:#e3d5b9;fill-opacity:1;stroke:#352815;stroke-width:0.375;stroke-linecap:square;stroke-linejoin:miter;stroke-miterlimit:4;stroke-dasharray:none;stroke-dashoffset:0;stroke-opacity:1"
         d="M 61.087475,652.12299 A 25.654415,25.654415 0 0 1 35.43306,677.7774 25.654415,25.654415 0 0 1 9.7786446,652.12299 25.654415,25.654415 0 0 1 35.43306,626.46857 25.654415,25.654415 0 0 1 61.087475,652.12299 Z"
         id="path9763-8-3"
         inkscape:connector-curvature="0" />
      <path
         inkscape:connector-curvature="0"
         style="opacity:1;fill:#352815;fill-opacity:1;stroke:none;stroke-width:0.30000001;stroke-linecap:square;stroke-linejoin:miter;stroke-miterlimit:4;stroke-dasharray:none;stroke-dashoffset:0;stroke-opacity:1"
         d="m 22.39454,643.98146 c -1.10368,0 -1.99207,0.88841 -1.99207,1.99201 l 0,12.2991 c 0,1.10364 0.88839,1.99205 1.99207,1.99205 l 26.07705,0 c 1.10363,0 1.99207,-0.88841 1.99207,-1.99205 l 0,-12.2991 c 0,-1.1036 -0.88844,-1.99201 -1.99207,-1.99201 l -26.07705,0 z m 0.51301,1.16784 a 1.0241596,1.0241596 0 0 1 1.02402,1.02409 1.0241596,1.0241596 0 0 1 -1.02402,1.02402 1.0241596,1.0241596 0 0 1 -1.02431,-1.02402 1.0241596,1.0241596 0 0 1 1.02431,-1.02409 z m 3.13139,0 a 1.0241596,1.0241596 0 0 1 1.02412,1.02409 1.0241596,1.0241596 0 0 1 -1.02412,1.02402 1.0241596,1.0241596 0 0 1 -1.02425,-1.02402 1.0241596,1.0241596 0 0 1 1.02425,-1.02409 z m 3.13126,0 a 1.0241596,1.0241596 0 0 1 1.02425,1.02409 1.0241596,1.0241596 0 0 1 -1.02425,1.02402 1.0241596,1.0241596 0 0 1 -1.02405,-1.02402 1.0241596,1.0241596 0 0 1 1.02405,-1.02409 z m 3.13146,0 a 1.0241596,1.0241596 0 0 1 1.0242,1.02409 1.0241596,1.0241596 0 0 1 -1.0242,1.02402 1.0241596,1.0241596 0 0 1 -1.0241,-1.02402 1.0241596,1.0241596 0 0 1 1.0241,-1.02409 z m 3.13139,0 a 1.0241596,1.0241596 0 0 1 1.02413,1.02409 1.0241596,1.0241596 0 0 1 -1.02413,1.02402 1.0241596,1.0241596 0 0 1 -1.02425,-1.02402 1.0241596,1.0241596 0 0 1 1.02425,-1.02409 z m 3.13142,0 a 1.0241596,1.0241596 0 0 1 1.02409,1.02409 1.0241596,1.0241596 0 0 1 -1.02409,1.02402 1.0241596,1.0241596 0 0 1 -1.0242,-1.02402 1.0241596,1.0241596 0 0 1 1.0242,-1.02409 z m 3.13131,0 a 1.0241596,1.0241596 0 0 1 1.0242,1.02409 1.0241596,1.0241596 0 0 1 -1.0242,1.02402 1.0241596,1.0241596 0 0 1 -1.0241,-1.02402 1.0241596,1.0241596 0 0 1 1.0241,-1.02409 z m 3.13141,0 a 1.0241596,1.0241596 0 0 1 1.02425,1.02409 1.0241596,1.0241596 0 0 1 -1.02425,1.02402 1.0241596,1.0241596 0 0 1 -1.02412,-1.02402 1.0241596,1.0241596 0 0 1 1.02412,-1.02409 z m 3.13139,0 a 1.0241596,1.0241596 0 0 1 1.02412,1.02409 1.0241596,1.0241596 0 0 1 -1.02412,1.02402 1.0241596,1.0241596 0 0 1 -1.02421,-1.02402 1.0241596,1.0241596 0 0 1 1.02421,-1.02409 z m -21.91964,3.13123 a 1.0241596,1.0241596 0 0 1 1.02412,1.02428 1.0241596,1.0241596 0 0 1 -1.02412,1.02409 1.0241596,1.0241596 0 0 1 -1.02425,-1.02409 1.0241596,1.0241596 0 0 1 1.02425,-1.02428 z m 3.13126,0 a 1.0241596,1.0241596 0 0 1 1.02425,1.02428 1.0241596,1.0241596 0 0 1 -1.02425,1.02409 1.0241596,1.0241596 0 0 1 -1.02405,-1.02409 1.0241596,1.0241596 0 0 1 1.02405,-1.02428 z m 3.13146,0 a 1.0241596,1.0241596 0 0 1 1.0242,1.02428 1.0241596,1.0241596 0 0 1 -1.0242,1.02409 1.0241596,1.0241596 0 0 1 -1.0241,-1.02409 1.0241596,1.0241596 0 0 1 1.0241,-1.02428 z m 3.13139,0 a 1.0241596,1.0241596 0 0 1 1.02413,1.02428 1.0241596,1.0241596 0 0 1 -1.02413,1.02409 1.0241596,1.0241596 0 0 1 -1.02425,-1.02409 1.0241596,1.0241596 0 0 1 1.02425,-1.02428 z m 3.13142,0 a 1.0241596,1.0241596 0 0 1 1.02409,1.02428 1.0241596,1.0241596 0 0 1 -1.02409,1.02409 1.0241596,1.0241596 0 0 1 -1.0242,-1.02409 1.0241596,1.0241596 0 0 1 1.0242,-1.02428 z m 3.13131,0 a 1.0241596,1.0241596 0 0 1 1.0242,1.02428 1.0241596,1.0241596 0 0 1 -1.0242,1.02409 1.0241596,1.0241596 0 0 1 -1.0241,-1.02409 1.0241596,1.0241596 0 0 1 1.0241,-1.02428 z m 3.13141,0 a 1.0241596,1.0241596 0 0 1 1.02425,1.02428 1.0241596,1.0241596 0 0 1 -1.02425,1.02409 1.0241596,1.0241596 0 0 1 -1.02412,-1.02409 1.0241596,1.0241596 0 0 1 1.02412,-1.02428 z m -9.39414,3.13146 a 1.0241596,1.0241596 0 0 1 1.02413,1.02405 1.0241596,1.0241596 0 0 1 -1.02413,1.02426 1.0241596,1.0241596 0 0 1 -1.02425,-1.02426 1.0241596,1.0241596 0 0 1 1.02425,-1.02405 z m 12.52553,0 a 1.0241596,1.0241596 0 0 1 1.02412,1.02405 1.0241596,1.0241596 0 0 1 -1.02412,1.02426 1.0241596,1.0241596 0 0 1 -1.02421,-1.02426 1.0241596,1.0241596 0 0 1 1.02421,-1.02405 z m -25.05103,3.13144 a 1.0241596,1.0241596 0 0 1 1.02402,1.02408 1.0241596,1.0241596 0 0 1 -1.02402,1.02419 1.0241596,1.0241596 0 0 1 -1.02412,-1.02419 1.0241596,1.0241596 0 0 1 1.02412,-1.02408 z m 3.13139,0 a 1.0241596,1.0241596 0 0 1 1.02412,1.02408 1.0241596,1.0241596 0 0 1 -1.02412,1.02419 1.0241596,1.0241596 0 0 1 -1.02425,-1.02419 1.0241596,1.0241596 0 0 1 1.02425,-1.02408 z m 6.26272,0 a 1.0241596,1.0241596 0 0 1 1.0242,1.02408 1.0241596,1.0241596 0 0 1 -1.0242,1.02419 1.0241596,1.0241596 0 0 1 -1.0241,-1.02419 1.0241596,1.0241596 0 0 1 1.0241,-1.02408 z m 6.26281,0 a 1.0241596,1.0241596 0 0 1 1.02409,1.02408 1.0241596,1.0241596 0 0 1 -1.02409,1.02419 1.0241596,1.0241596 0 0 1 -1.0242,-1.02419 1.0241596,1.0241596 0 0 1 1.0242,-1.02408 z m 3.13131,0 a 1.0241596,1.0241596 0 0 1 1.0242,1.02408 1.0241596,1.0241596 0 0 1 -1.0242,1.02419 1.0241596,1.0241596 0 0 1 -1.0241,-1.02419 1.0241596,1.0241596 0 0 1 1.0241,-1.02408 z m 3.13141,0 a 1.0241596,1.0241596 0 0 1 1.02425,1.02408 1.0241596,1.0241596 0 0 1 -1.02425,1.02419 1.0241596,1.0241596 0 0 1 -1.02412,-1.02419 1.0241596,1.0241596 0 0 1 1.02412,-1.02408 z m -21.91964,3.64334 a 0.51207895,0.51207895 0 0 1 0.51208,0.51215 0.51207895,0.51207895 0 0 1 -0.51208,0.51216 0.51207895,0.51207895 0 0 1 -0.51216,-0.51216 0.51207895,0.51207895 0 0 1 0.51216,-0.51215 z m 3.13139,0 a 0.51207895,0.51207895 0 0 1 0.51196,0.51215 0.51207895,0.51207895 0 0 1 -0.51196,0.51216 0.51207895,0.51207895 0 0 1 -0.51217,-0.51216 0.51207895,0.51207895 0 0 1 0.51217,-0.51215 z m 3.13126,0 a 0.51207895,0.51207895 0 0 1 0.51209,0.51215 0.51207895,0.51207895 0 0 1 -0.51209,0.51216 0.51207895,0.51207895 0 0 1 -0.51196,-0.51216 0.51207895,0.51207895 0 0 1 0.51196,-0.51215 z m 3.13146,0 a 0.51207895,0.51207895 0 0 1 0.51209,0.51215 0.51207895,0.51207895 0 0 1 -0.51209,0.51216 0.51207895,0.51207895 0 0 1 -0.51214,-0.51216 0.51207895,0.51207895 0 0 1 0.51214,-0.51215 z m 3.13139,0 a 0.51207895,0.51207895 0 0 1 0.51215,0.51215 0.51207895,0.51207895 0 0 1 -0.51215,0.51216 0.51207895,0.51207895 0 0 1 -0.51216,-0.51216 0.51207895,0.51207895 0 0 1 0.51216,-0.51215 z m 3.13142,0 a 0.51207895,0.51207895 0 0 1 0.51193,0.51215 0.51207895,0.51207895 0 0 1 -0.51193,0.51216 0.51207895,0.51207895 0 0 1 -0.51209,-0.51216 0.51207895,0.51207895 0 0 1 0.51209,-0.51215 z m 3.13131,0 a 0.51207895,0.51207895 0 0 1 0.51211,0.51215 0.51207895,0.51207895 0 0 1 -0.51211,0.51216 0.51207895,0.51207895 0 0 1 -0.51195,-0.51216 0.51207895,0.51207895 0 0 1 0.51195,-0.51215 z m 3.13141,0 a 0.51207895,0.51207895 0 0 1 0.51217,0.51215 0.51207895,0.51207895 0 0 1 -0.51217,0.51216 0.51207895,0.51207895 0 0 1 -0.51215,-0.51216 0.51207895,0.51207895 0 0 1 0.51215,-0.51215 z m 3.13139,0 a 0.51207895,0.51207895 0 0 1 0.51216,0.51215 0.51207895,0.51207895 0 0 1 -0.51216,0.51216 0.51207895,0.51207895 0 0 1 -0.51208,-0.51216 0.51207895,0.51207895 0 0 1 0.51208,-0.51215 z"
         id="rect7225-2-0" />
    </g>
  </g>
</svg>
