<?xml version="1.0" encoding="UTF-8" standalone="no"?>
<svg xmlns:rdf="http://www.w3.org/1999/02/22-rdf-syntax-ns#" xmlns="http://www.w3.org/2000/svg" height="14.586mm" width="14.586mm" version="1.1" xmlns:cc="http://creativecommons.org/ns#" xmlns:dc="http://purl.org/dc/elements/1.1/" viewBox="0 0 100 100">
 <g transform="translate(-94.158 -186.52)" id="icon">
  <path d="m24.07 14.354l-10.631 10.63h17.717l7.088-10.63h-14.174zm13.145 3.085l-6.059 9.088h-16.174l-1.543 1.543h17.717l7.088-10.631h-1.029zm0 3.088l-6.059 9.086h-16.174l-1.543 1.543h17.717l7.088-10.629h-1.029zm0 3.086l-6.059 9.086h-16.172l-1.545 1.545h17.717l7.088-10.631h-1.029zm0 3.086l-6.059 9.088h-16.174l-1.543 1.543h17.717l7.088-10.631h-1.029z" fill-rule="evenodd" transform="matrix(1.9348 0 0 1.9348 94.158 186.52)"/>
 </g>
</svg>
