<?xml version="1.0" encoding="UTF-8" standalone="no"?>
<svg xmlns:rdf="http://www.w3.org/1999/02/22-rdf-syntax-ns#" xmlns="http://www.w3.org/2000/svg" height="14.586mm" width="14.586mm" version="1.1" xmlns:cc="http://creativecommons.org/ns#" xmlns:dc="http://purl.org/dc/elements/1.1/" viewBox="0 0 100 100">
 <g transform="translate(-234.44 -605.93)" id="icon">
  <g transform="translate(344.43 -17.976)">
   <path d="m-67.033 647.65c-1.2122 0-2.1873 0.9751-2.1873 2.1873v3.8092h-18.629v7.6078c0.038 4.1017 3.3456 7.3923 7.4559 7.3923h0.9435v-2.5513h6.4665v2.5513h12.997 12.997v-2.5513h6.4666v2.5513h0.94332c4.1103 0 7.4179-3.2906 7.4559-7.3923v-7.6078h-18.629v-3.8092c0-1.2122-0.97516-2.1873-2.1873-2.1873h-7.0461-7.046zm0.13025 2.2368h6.9151 6.9153v4.0001h-6.9153-6.9151v-4.0001zm-20.947 18.138v24.414h27.863 27.863v-24.414c-1.3609 1.4635-3.2904 2.3922-5.4558 2.3922h-2.9434v4.41h-6.4666v-4.41h-12.997-12.997v4.41h-6.4665v-4.41h-2.9434c-2.1654 0-4.0951-0.92872-5.456-2.3922z"/>
  </g>
 </g>
</svg>
