<?xml version="1.0" encoding="UTF-8" standalone="no"?>
<!-- Created with Inkscape (http://www.inkscape.org/) -->

<svg
   xmlns:dc="http://purl.org/dc/elements/1.1/"
   xmlns:cc="http://creativecommons.org/ns#"
   xmlns:rdf="http://www.w3.org/1999/02/22-rdf-syntax-ns#"
   xmlns:svg="http://www.w3.org/2000/svg"
   xmlns="http://www.w3.org/2000/svg"
   xmlns:sodipodi="http://sodipodi.sourceforge.net/DTD/sodipodi-0.dtd"
   xmlns:inkscape="http://www.inkscape.org/namespaces/inkscape"
   width="14.586326mm"
   height="14.586326mm"
   viewBox="0 0 51.683831 51.683831"
   id="svg6326"
   version="1.1"
   inkscape:version="0.91 r13725"
   sodipodi:docname="iconbriefcase.svg">
  <defs
     id="defs6328" />
  <sodipodi:namedview
     id="base"
     pagecolor="#ffffff"
     bordercolor="#666666"
     borderopacity="1.0"
     inkscape:pageopacity="0.0"
     inkscape:pageshadow="2"
     inkscape:zoom="3.4808594"
     inkscape:cx="86.044387"
     inkscape:cy="27.659564"
     inkscape:document-units="px"
     inkscape:current-layer="g13254"
     showgrid="false"
     fit-margin-top="0"
     fit-margin-left="0"
     fit-margin-right="0"
     fit-margin-bottom="0"
     inkscape:window-width="2492"
     inkscape:window-height="1417"
     inkscape:window-x="-8"
     inkscape:window-y="-8"
     inkscape:window-maximized="1" />
  <metadata
     id="metadata6331">
    <rdf:RDF>
      <cc:Work
         rdf:about="">
        <dc:format>image/svg+xml</dc:format>
        <dc:type
           rdf:resource="http://purl.org/dc/dcmitype/StillImage" />
        <dc:title></dc:title>
      </cc:Work>
    </rdf:RDF>
  </metadata>
  <g
     inkscape:label="Layer 1"
     inkscape:groupmode="layer"
     id="layer1"
     transform="translate(-234.43863,-605.9345)">
    <g
       transform="translate(344.42625,-17.976101)"
       id="g13254">
      <path
         style="opacity:1;fill:#e3d5b9;fill-opacity:1;stroke:#352815;stroke-width:0.375;stroke-linecap:square;stroke-linejoin:miter;stroke-miterlimit:4;stroke-dasharray:none;stroke-dashoffset:0;stroke-opacity:1"
         d="M -130.34558,752.36218 A 25.654415,25.654415 0 0 1 -156,778.0166 25.654415,25.654415 0 0 1 -181.65442,752.36218 25.654415,25.654415 0 0 1 -156,726.70777 a 25.654415,25.654415 0 0 1 25.65442,25.65441 z"
         id="path9763-8-3-5-8"
         transform="translate(71.8543,-102.60967)" />
      <path
         id="rect10943-6-1-3-8"
         d="m -87.787179,636.17833 c -0.626495,0 -1.130496,0.50397 -1.130496,1.13048 l 0,1.96876 -9.628294,0 0,3.93203 c 0.01964,2.1199 1.729126,3.82063 3.853505,3.82063 l 0.487638,0 0,-1.3186 3.342117,0 0,1.3186 6.717149,0 6.717149,0 0,-1.3186 3.342211,0 0,1.3186 0.487544,0 c 2.12438,0 3.83387,-1.70073 3.853506,-3.82063 l 0,-3.93203 -9.628201,0 0,-1.96876 c 0,-0.62651 -0.504001,-1.13048 -1.130496,-1.13048 l -3.641713,0 -3.641619,0 z m 0.06732,1.15605 3.574014,0 3.574107,0 0,2.06738 -3.574107,0 -3.574014,0 0,-2.06738 z m -10.826396,9.37442 0,12.61793 14.40041,0 14.400409,0 0,-12.61793 c -0.703357,0.7564 -1.700606,1.2364 -2.819788,1.2364 l -1.521261,0 0,2.27923 -3.342211,0 0,-2.27923 -6.717149,0 -6.717149,0 0,2.27923 -3.342118,0 0,-2.27923 -1.521261,0 c -1.119182,0 -2.116524,-0.48 -2.819882,-1.2364 z"
         style="opacity:1;fill:#352815;fill-opacity:1;stroke:none;stroke-width:0.30000001;stroke-linecap:square;stroke-linejoin:miter;stroke-miterlimit:4;stroke-dasharray:none;stroke-dashoffset:0;stroke-opacity:1"
         inkscape:connector-curvature="0" />
    </g>
  </g>
</svg>
