<?xml version="1.0" encoding="UTF-8" standalone="no"?>
<svg xmlns:rdf="http://www.w3.org/1999/02/22-rdf-syntax-ns#" xmlns="http://www.w3.org/2000/svg" height="20" width="20" version="1.1" xmlns:cc="http://creativecommons.org/ns#" xmlns:dc="http://purl.org/dc/elements/1.1/" viewBox="0 0 20 20">
 <g transform="translate(-244.55 -502.25)" id="bean">
  <path d="m262.76 504.8-0.688 0.65926c-0.82325 0.78909-4.0126 1.8312-5.5099 3.3808-1.4386 1.4889-1.9153 3.6802-3.0645 5.4022-1.0455 1.5667-2.0051 3.3858-3.4688 4.4604-0.62906 0.46261-2.0898 1.2876-1.604 1.9863 2.3397 3.3648 7.7493 0.12096 11.656-3.9105 3.9033-4.0366 4.9296-14.136 2.6789-11.978zm-1.0829-0.95299c0.99954-3.2958-7.3472-0.44714-11.254 3.5837-3.9034 4.0368-7.0893 9.6841-4.0778 11.358 0.61802 0.34334 1.3507-0.0512 1.9221-0.36232 3.3785-1.8583 4.7418-7.3761 7.877-10.384 1.5204-1.4585 3.6828-1.5814 5.19-3.6078 0.13584-0.18112 0.34253-0.5878 0.34253-0.5878z"
  />
 </g>
 <circle id="bullet" stroke-width="5" stroke="#352815" cy="50" cx="50" r="45" fill="#e3d5b9"/>
</svg>
